<svg width="188" height="33" viewBox="0 0 188 33" fill="none" xmlns="http://www.w3.org/2000/svg">
<path d="M10.0889 1.704C11.8595 1.704 13.3742 2.00267 14.6329 2.6C15.8915 3.19733 16.8515 4.05067 17.5129 5.16C18.1955 6.26933 18.5369 7.61333 18.5369 9.192C18.5369 10.1093 18.3875 11.0267 18.0889 11.944C17.8115 12.8613 17.3635 13.6933 16.7449 14.44C16.1475 15.1867 15.3369 15.7947 14.3129 16.264C13.3102 16.712 12.0729 16.936 10.6009 16.936H7.24088V25H3.49688V1.704H10.0889ZM10.6009 13.32C11.4115 13.32 12.0942 13.1813 12.6489 12.904C13.2035 12.6267 13.6302 12.2747 13.9289 11.848C14.2489 11.4213 14.4729 10.984 14.6009 10.536C14.7502 10.0667 14.8249 9.65067 14.8249 9.288C14.8249 8.904 14.7609 8.488 14.6329 8.04C14.5049 7.57067 14.2915 7.13333 13.9929 6.728C13.6942 6.30133 13.2782 5.96 12.7449 5.704C12.2115 5.42666 11.5289 5.288 10.6969 5.288H7.24088V13.32H10.6009ZM25.5554 11.464L25.8754 15.304L25.7474 14.76C26.1314 13.9493 26.654 13.256 27.3154 12.68C27.998 12.0827 28.6914 11.6347 29.3954 11.336C30.0994 11.016 30.6754 10.856 31.1234 10.856L30.9634 14.44C29.9394 14.3547 29.0434 14.5467 28.2754 15.016C27.5287 15.464 26.942 16.0613 26.5154 16.808C26.11 17.5547 25.9074 18.344 25.9074 19.176V25H22.3234V11.464H25.5554ZM33.0784 18.088C33.0784 16.7227 33.3984 15.496 34.0384 14.408C34.6784 13.2987 35.5744 12.4347 36.7264 11.816C37.8997 11.176 39.2224 10.856 40.6944 10.856C42.209 10.856 43.521 11.176 44.6304 11.816C45.761 12.4347 46.6357 13.2987 47.2544 14.408C47.873 15.496 48.1824 16.7227 48.1824 18.088C48.1824 19.4533 47.873 20.6907 47.2544 21.8C46.6357 22.888 45.761 23.752 44.6304 24.392C43.521 25.032 42.1984 25.352 40.6624 25.352C39.2117 25.352 37.9104 25.064 36.7584 24.488C35.6064 23.8907 34.6997 23.048 34.0384 21.96C33.3984 20.872 33.0784 19.5813 33.0784 18.088ZM36.6944 18.12C36.6944 18.9093 36.865 19.6347 37.2064 20.296C37.5477 20.936 38.017 21.448 38.6144 21.832C39.2117 22.216 39.873 22.408 40.5984 22.408C41.3877 22.408 42.0704 22.216 42.6464 21.832C43.2437 21.448 43.7024 20.936 44.0224 20.296C44.3637 19.6347 44.5344 18.9093 44.5344 18.12C44.5344 17.3093 44.3637 16.584 44.0224 15.944C43.7024 15.2827 43.2437 14.76 42.6464 14.376C42.0704 13.992 41.3877 13.8 40.5984 13.8C39.8517 13.8 39.1797 14.0027 38.5824 14.408C38.0064 14.792 37.5477 15.304 37.2064 15.944C36.865 16.584 36.6944 17.3093 36.6944 18.12ZM52.4284 31.528L50.3484 29.288C50.9457 28.7973 51.415 28.1893 51.7564 27.464C52.119 26.7387 52.3004 25.8747 52.3004 24.872V11.464H55.8844V25.032C55.8844 26.6107 55.6177 27.9227 55.0844 28.968C54.551 30.0347 53.6657 30.888 52.4284 31.528ZM52.0764 6.632C52.0764 6.07733 52.2897 5.61867 52.7164 5.256C53.1644 4.89333 53.6444 4.712 54.1564 4.712C54.6684 4.712 55.127 4.89333 55.5324 5.256C55.959 5.61867 56.1724 6.07733 56.1724 6.632C56.1724 7.18667 55.959 7.64533 55.5324 8.008C55.127 8.34933 54.6684 8.52 54.1564 8.52C53.6444 8.52 53.1644 8.33867 52.7164 7.976C52.2897 7.61333 52.0764 7.16533 52.0764 6.632ZM67.5776 10.888H68.8576C70.3936 11.1227 71.375 11.8267 71.8016 13C71.9296 13.4267 71.951 13.864 71.8656 14.312C71.503 15.9547 70.319 17.032 68.3136 17.544C67.4176 17.8 65.935 17.96 63.8656 18.024H62.8416L62.7776 18.216C62.6923 18.5787 62.5856 19.1333 62.4576 19.88C62.3723 20.5627 62.3723 21.1707 62.4576 21.704C62.5856 22.3227 62.8523 22.824 63.2576 23.208C63.7483 23.656 64.4096 23.8693 65.2416 23.848C66.9483 23.7413 68.3883 23.2507 69.5616 22.376C69.967 22.12 70.3083 21.8107 70.5856 21.448C70.8203 21.1707 71.0123 21.0853 71.1616 21.192C71.2256 21.2347 71.343 21.3413 71.5136 21.512C71.8123 21.832 71.951 22.0347 71.9296 22.12C71.9083 22.2267 71.6736 22.504 71.2256 22.952C69.8816 24.232 68.1536 25 66.0416 25.256C65.3163 25.384 64.6763 25.4053 64.1216 25.32C62.1163 25.1067 60.719 24.0933 59.9296 22.28C59.7803 21.96 59.663 21.6187 59.5776 21.256C59.4283 20.7227 59.3536 20.0507 59.3536 19.24C59.375 17.9813 59.6523 16.8293 60.1856 15.784C60.5696 14.9947 61.0923 14.2693 61.7536 13.608C62.0736 13.3093 62.4683 12.9787 62.9376 12.616C64.239 11.656 65.647 11.0907 67.1616 10.92C67.2683 10.8987 67.407 10.888 67.5776 10.888ZM68.4416 12.392C67.6523 12.2427 66.8203 12.392 65.9456 12.84C64.687 13.416 63.8123 14.5253 63.3216 16.168C63.279 16.3387 63.247 16.4347 63.2256 16.456C63.2256 16.4987 63.5776 16.52 64.2816 16.52C65.6683 16.4987 66.7136 16.4027 67.4176 16.232C68.8683 15.9333 69.7216 15.3147 69.9776 14.376C70.063 14.0347 70.0523 13.736 69.9456 13.48C69.7536 12.9253 69.2523 12.5627 68.4416 12.392ZM86.8359 23.752C86.2385 24.2427 85.5025 24.6373 84.6279 24.936C83.7745 25.2133 82.9105 25.352 82.0359 25.352C80.5425 25.352 79.2305 25.064 78.0999 24.488C76.9692 23.8907 76.0839 23.0693 75.4439 22.024C74.8252 20.9573 74.5159 19.688 74.5159 18.216C74.5159 16.744 74.8465 15.4747 75.5079 14.408C76.1905 13.3413 77.0759 12.5307 78.1639 11.976C79.2732 11.4 80.4465 11.112 81.6839 11.112C82.8145 11.112 83.8172 11.272 84.6919 11.592C85.5665 11.8907 86.3239 12.3067 86.9639 12.84L85.1719 15.176C84.8305 14.8987 84.3825 14.6427 83.8279 14.408C83.2945 14.152 82.6865 14.024 82.0039 14.024C81.2785 14.024 80.6172 14.2053 80.0199 14.568C79.4439 14.9307 78.9745 15.432 78.6119 16.072C78.2705 16.6907 78.0999 17.4053 78.0999 18.216C78.0999 18.984 78.2812 19.688 78.6439 20.328C79.0065 20.968 79.5079 21.48 80.1479 21.864C80.7879 22.2267 81.5239 22.408 82.3559 22.408C82.8892 22.408 83.3799 22.3333 83.8279 22.184C84.2972 22.0133 84.7025 21.7893 85.0439 21.512L86.8359 23.752ZM91.7909 5.512H95.4069V11.464H98.9269V14.28H95.4069V25H91.7909V14.28H89.4869V11.464H91.7909V5.512ZM116.474 3.304L116.57 3.24H125.53H134.458L134.586 3.336C134.65 3.42133 134.682 3.50667 134.682 3.592L133.754 10.888C133.754 10.9947 133.712 11.08 133.626 11.144L133.53 11.24H132.986C132.602 11.24 132.378 11.2187 132.314 11.176C132.208 11.112 132.176 10.856 132.218 10.408C132.218 10.3653 132.218 10.312 132.218 10.248C132.325 9.37333 132.378 8.648 132.378 8.072C132.314 6.792 131.888 5.94933 131.098 5.544C130.714 5.37333 130.32 5.256 129.914 5.192C129.317 5.08533 127.994 5.04267 125.946 5.064C123.898 5.064 122.821 5.128 122.714 5.256L120.794 12.808H122.49C123.898 12.7867 124.805 12.7013 125.21 12.552C125.68 12.4027 126.064 12.136 126.362 11.752C126.661 11.368 126.938 10.6747 127.194 9.672C127.28 9.39467 127.354 9.224 127.418 9.16L127.514 9.064H128.058C128.506 9.064 128.773 9.13867 128.858 9.288C128.88 9.37333 128.538 10.856 127.834 13.736C127.088 16.6587 126.704 18.1307 126.682 18.152C126.64 18.28 126.384 18.344 125.914 18.344H125.37L125.242 18.248C125.157 18.1413 125.157 17.896 125.242 17.512C125.498 16.424 125.53 15.6773 125.338 15.272C125.189 14.952 124.762 14.7493 124.058 14.664C123.93 14.6427 123.269 14.632 122.074 14.632L120.346 14.6L119.29 18.792C118.586 21.6293 118.234 23.0587 118.234 23.08C118.234 23.1013 118.256 23.1333 118.298 23.176H124.09C125.349 23.112 126.426 22.8773 127.322 22.472C127.856 22.1947 128.336 21.864 128.762 21.48C129.594 20.648 130.48 19.1013 131.418 16.84C131.589 16.392 131.717 16.1253 131.802 16.04L131.898 15.944H132.474H133.05L133.146 16.04C133.232 16.1253 133.232 16.296 133.146 16.552C133.04 16.872 132.506 18.216 131.546 20.584C130.373 23.4 129.786 24.8187 129.786 24.84C129.744 24.9253 129.434 24.968 128.858 24.968C128.176 24.9893 125.37 25 120.442 25C114.32 25 111.216 24.936 111.13 24.808C111.088 24.744 111.109 24.4987 111.194 24.072C111.301 23.6027 111.408 23.336 111.514 23.272C111.621 23.2293 112.005 23.208 112.666 23.208C113.861 23.1867 114.533 23.1013 114.682 22.952C114.746 22.9093 115.514 19.944 116.986 14.056C118.458 8.168 119.173 5.21333 119.13 5.192C119.088 5.14933 119.013 5.128 118.906 5.128C118.544 5.064 117.925 5.032 117.05 5.032C116.496 5.032 116.186 4.968 116.122 4.84C116.08 4.776 116.101 4.53067 116.186 4.104C116.293 3.656 116.389 3.38933 116.474 3.304ZM140.675 25.576C139.438 25.576 138.414 25.2027 137.603 24.456C136.793 23.688 136.366 22.7067 136.323 21.512V11.464H139.907V20.232C139.95 20.8933 140.142 21.4373 140.483 21.864C140.825 22.2907 141.369 22.504 142.115 22.504C142.819 22.504 143.449 22.2907 144.003 21.864C144.558 21.416 144.985 20.808 145.283 20.04C145.603 19.272 145.763 18.408 145.763 17.448V11.464H149.347V25H146.115L145.827 22.024L145.923 22.504C145.646 23.08 145.251 23.6133 144.739 24.104C144.227 24.5733 143.619 24.936 142.915 25.192C142.233 25.448 141.486 25.576 140.675 25.576ZM154.292 0.039999H157.876V25H154.292V0.039999ZM169.64 10.888H170.92C172.456 11.1227 173.437 11.8267 173.864 13C173.992 13.4267 174.013 13.864 173.928 14.312C173.565 15.9547 172.381 17.032 170.376 17.544C169.48 17.8 167.997 17.96 165.928 18.024H164.904L164.84 18.216C164.755 18.5787 164.648 19.1333 164.52 19.88C164.435 20.5627 164.435 21.1707 164.52 21.704C164.648 22.3227 164.915 22.824 165.32 23.208C165.811 23.656 166.472 23.8693 167.304 23.848C169.011 23.7413 170.451 23.2507 171.624 22.376C172.029 22.12 172.371 21.8107 172.648 21.448C172.883 21.1707 173.075 21.0853 173.224 21.192C173.288 21.2347 173.405 21.3413 173.576 21.512C173.875 21.832 174.013 22.0347 173.992 22.12C173.971 22.2267 173.736 22.504 173.288 22.952C171.944 24.232 170.216 25 168.104 25.256C167.379 25.384 166.739 25.4053 166.184 25.32C164.179 25.1067 162.781 24.0933 161.992 22.28C161.843 21.96 161.725 21.6187 161.64 21.256C161.491 20.7227 161.416 20.0507 161.416 19.24C161.437 17.9813 161.715 16.8293 162.248 15.784C162.632 14.9947 163.155 14.2693 163.816 13.608C164.136 13.3093 164.531 12.9787 165 12.616C166.301 11.656 167.709 11.0907 169.224 10.92C169.331 10.8987 169.469 10.888 169.64 10.888ZM170.504 12.392C169.715 12.2427 168.883 12.392 168.008 12.84C166.749 13.416 165.875 14.5253 165.384 16.168C165.341 16.3387 165.309 16.4347 165.288 16.456C165.288 16.4987 165.64 16.52 166.344 16.52C167.731 16.4987 168.776 16.4027 169.48 16.232C170.931 15.9333 171.784 15.3147 172.04 14.376C172.125 14.0347 172.115 13.736 172.008 13.48C171.816 12.9253 171.315 12.5627 170.504 12.392ZM180.93 11.464L181.25 15.304L181.122 14.76C181.506 13.9493 182.029 13.256 182.69 12.68C183.373 12.0827 184.066 11.6347 184.77 11.336C185.474 11.016 186.05 10.856 186.498 10.856L186.338 14.44C185.314 14.3547 184.418 14.5467 183.65 15.016C182.904 15.464 182.317 16.0613 181.89 16.808C181.485 17.5547 181.282 18.344 181.282 19.176V25H177.698V11.464H180.93Z" fill="#FF9933"/>
</svg>
